<svg version="1.1" viewBox="0.0 0.0 512.0 512.0" fill="none" stroke="none" stroke-linecap="square" stroke-miterlimit="10" xmlns:xlink="http://www.w3.org/1999/xlink" xmlns="http://www.w3.org/2000/svg"><clipPath id="p.0"><path d="m0 0l512.0 0l0 512.0l-512.0 0l0 -512.0z" clip-rule="nonzero"/></clipPath><g clip-path="url(#p.0)"><path fill="#000000" fill-opacity="0.0" d="m0 0l512.0 0l0 512.0l-512.0 0z" fill-rule="evenodd"/><path fill="#ffffff" d="m0.3863517 86.26266l0 0c0 -47.129242 38.2058 -85.33504 85.33504 -85.33504l341.3299 0l0 0c22.632263 0 44.337585 8.99063 60.341003 24.994053c16.003418 16.003424 24.99405 37.708725 24.99405 60.34099l0 341.32993c0 47.129242 -38.20581 85.33502 -85.33505 85.33502l-341.3299 0c-47.12924 0 -85.33504 -38.20578 -85.33504 -85.33502z" fill-rule="evenodd"/><path stroke="#ffffff" stroke-width="1.0" stroke-linejoin="round" stroke-linecap="butt" d="m0.3863517 86.26266l0 0c0 -47.129242 38.2058 -85.33504 85.33504 -85.33504l341.3299 0l0 0c22.632263 0 44.337585 8.99063 60.341003 24.994053c16.003418 16.003424 24.99405 37.708725 24.99405 60.34099l0 341.32993c0 47.129242 -38.20581 85.33502 -85.33505 85.33502l-341.3299 0c-47.12924 0 -85.33504 -38.20578 -85.33504 -85.33502z" fill-rule="evenodd"/><path fill="#000000" fill-opacity="0.0" d="m46.3937 126.02887l419.2126 0l0 261.7953l-419.2126 0z" fill-rule="evenodd"/><path fill="#000000" d="m171.59683 173.02887l0 22.59375l-9.203125 0q-12.1875 0 -15.296875 3.109375q-3.09375 3.09375 -3.09375 15.890625l0 20.0q0 13.8125 -5.203125 21.3125q-5.203125 7.5 -17.203133 12.296875l0 0.390625q12.000008 4.8125 17.203133 12.40625q5.203125 7.59375 5.203125 21.40625l0 20.0q0 12.796875 3.09375 15.890625q3.109375 3.109375 15.296875 3.109375l9.203125 0l0 22.59375l-24.59375 0q-17.203125 0 -24.812508 -7.609375q-7.59375 -7.59375 -7.59375 -25.390625l0 -27.59375q0 -12.609375 -4.0 -17.703125q-4.0 -5.109375 -13.59375 -5.109375l-8.0 0l0 -24.1875l8.0 0q9.59375 0 13.59375 -5.09375q4.0 -5.109375 4.0 -17.71875l0 -27.59375q0 -17.796875 7.59375 -25.390625q7.6093826 -7.609375 24.812508 -7.609375l24.59375 0zm142.40628 8.0l0 28.203125l-40.609375 0l0 117.796875l-34.796875 0l0 -117.796875l-40.59375 0l0 -28.203125l116.0 0zm26.400055 -8.0l24.59375 0q17.203125 0 24.796875 7.609375q7.609375 7.59375 7.609375 25.390625l0 27.59375q0 12.609375 4.0 17.71875q4.0 5.09375 13.59375 5.09375l8.0 0l0 24.1875l-8.0 0q-9.59375 0 -13.59375 5.109375q-4.0 5.09375 -4.0 17.703125l0 27.59375q0 17.796875 -7.609375 25.390625q-7.59375 7.609375 -24.796875 7.609375l-24.59375 0l0 -22.59375l9.390625 0q12.203125 0 15.203125 -3.109375q3.0 -3.09375 3.0 -15.890625l0 -20.0q0 -13.8125 5.203125 -21.40625q5.203125 -7.59375 17.203125 -12.40625l0 -0.390625q-12.0 -4.796875 -17.203125 -12.296875q-5.203125 -7.5 -5.203125 -21.3125l0 -20.0q0 -12.796875 -3.0 -15.890625q-3.0 -3.109375 -15.203125 -3.109375l-9.390625 0l0 -22.59375z" fill-rule="nonzero"/></g></svg>