<?xml version="1.0" encoding="UTF-8" standalone="no"?>
<svg
   version="1.1"
   viewBox="0 0 280 100"
   fill="none"
   stroke="none"
   stroke-linecap="square"
   stroke-miterlimit="10"
   id="svg4"
   sodipodi:docname="trep-logo-v1.svg"
   width="280"
   height="100"
   inkscape:version="1.3.2 (091e20e, 2023-11-25, custom)"
   xmlns:inkscape="http://www.inkscape.org/namespaces/inkscape"
   xmlns:sodipodi="http://sodipodi.sourceforge.net/DTD/sodipodi-0.dtd"
   xmlns="http://www.w3.org/2000/svg"
   xmlns:svg="http://www.w3.org/2000/svg">
  <defs
     id="defs4" />
  <sodipodi:namedview
     id="namedview4"
     pagecolor="#ffffff"
     bordercolor="#000000"
     borderopacity="0.25"
     inkscape:showpageshadow="2"
     inkscape:pageopacity="0.0"
     inkscape:pagecheckerboard="0"
     inkscape:deskcolor="#d1d1d1"
     inkscape:zoom="1.71875"
     inkscape:cx="135.56364"
     inkscape:cy="123.63636"
     inkscape:window-width="1920"
     inkscape:window-height="1009"
     inkscape:window-x="-8"
     inkscape:window-y="-8"
     inkscape:window-maximized="1"
     inkscape:current-layer="svg4" />
  <clipPath
     id="p.0">
    <path
       d="M 0,0 H 400 V 160 H 0 Z"
       clip-rule="nonzero"
       id="path1" />
  </clipPath>
  <g
     clip-path="url(#p.0)"
     id="g4"
     transform="translate(0,0.58181818)">
    <path
       fill="#000000"
       fill-opacity="0"
       d="M 0,0 H 400 V 160 H 0 Z"
       fill-rule="evenodd"
       id="path2" />
    <path
       fill="#000000"
       fill-opacity="0"
       d="M 0,0 H 400 V 158.3622 H 0 Z"
       fill-rule="evenodd"
       id="path3" />
    <path
       fill="#000000"
       d="m 28.857188,49.35568 v 0.125 q 4.328125,1.609375 6.15625,4.21875 1.84375,2.59375 1.84375,7.390625 v 6.000002 q 0,4.187502 0.921875,5.093752 0.9375,0.90625 5.078125,0.90625 h 2.65625 v 8.65625 h -8.65625 q -6,0 -8.671875,-2.60938 -2.671875,-2.59375 -2.671875,-8.71875 V 61.41818 q 0,-4.203125 -1.328125,-5.765625 -1.328125,-1.5625 -4.671875,-1.5625 h -2.65625 V 44.76193 h 2.65625 q 3.34375,0 4.671875,-1.5625 1.328125,-1.578125 1.328125,-5.78125 v -9 q 0,-6.125 2.671875,-8.71875 2.671875,-2.609375 8.671875,-2.609375 h 8.65625 v 8.671875 h -2.65625 q -4.140625,0 -5.078125,0.90625 -0.921875,0.890625 -0.921875,5.09375 v 6 q 0,4.796875 -1.84375,7.40625 -1.828125,2.59375 -6.15625,4.1875 z M 93.902492,19.76193 v 11 H 80.714998 V 68.418177 H 67.105618 V 30.76193 h -13.1875 v -11 z m 25.064698,29.59375 q -4.32813,-1.59375 -6.17188,-4.1875 -1.82812,-2.609375 -1.82812,-7.40625 v -6 q 0,-4.203125 -0.9375,-5.09375 -0.92188,-0.90625 -5.0625,-0.90625 h -2.65625 v -8.671875 h 8.65625 q 6,0 8.67187,2.609375 2.67188,2.59375 2.67188,8.71875 v 9 q 0,4.203125 1.32812,5.78125 1.32813,1.5625 4.65625,1.5625 h 2.67188 v 9.328125 h -2.67188 q -3.32812,0 -4.65625,1.5625 -1.32812,1.5625 -1.32812,5.765625 v 8.999999 q 0,6.125 -2.67188,8.71875 -2.67187,2.60938 -8.67187,2.60938 h -8.65625 v -8.65625 h 2.65625 q 4.14062,0 5.0625,-0.90625 0.9375,-0.90625 0.9375,-5.093752 v -6.000002 q 0,-4.796875 1.82812,-7.390625 1.84375,-2.609375 6.17188,-4.21875 z m 33.06091,2.0625 v 16.999997 h -13 V 20.090055 q 8.67187,-1 17.34375,-1 19.98437,0 19.98437,15 0,4.203125 -2.59375,7.796875 -2.59375,3.59375 -6.73437,5.140625 v 0.125 q 2,1.140625 3.32812,2.90625 1.34375,1.765625 2.54688,5.03125 l 4.79687,13.328122 H 164.0281 l -4.125,-12.671872 q -0.73438,-2.328125 -1.875,-3.328125 -1.125,-1 -3,-1 z m 0,-9.65625 h 3.67187 q 3.39063,0 5.35938,-1.703125 1.96875,-1.703125 1.96875,-4.640625 0,-6.328125 -7.32813,-6.328125 -2.14062,0 -3.67187,0.328125 z m 63.39813,-3.34375 v 10 h -17.32812 v 9.328125 h 18.65625 v 10.671872 h -32 V 19.76193 h 32 v 10.65625 h -18.65625 v 8 z m 23.38846,14.796875 v 15.203122 h -13 V 20.090055 q 6.875,-1 14.67187,-1 22.65625,0 22.65625,16.328125 0,8.875 -5.09375,13.4375 -5.09375,4.5625 -14.89062,4.5625 -2.60938,0 -4.34375,-0.203125 z m 0,-9.65625 q 1.26562,0.203125 3,0.203125 4.34375,0 6.67187,-2 2.32813,-2 2.32813,-5.671875 0,-7 -9,-7 -1.46875,0 -3,0.328125 z"
       fill-rule="nonzero"
       id="path4" />
  </g>
</svg>
